<?xml version="1.0" encoding="UTF-8"?>
<svg width="142px" height="71px" viewBox="0 0 142 71" version="1.1" xmlns="http://www.w3.org/2000/svg" xmlns:xlink="http://www.w3.org/1999/xlink">
    <!-- Generator: Sketch 46.2 (44496) - http://www.bohemiancoding.com/sketch -->
    <title>Page 1</title>
    <desc>Created with Sketch.</desc>
    <defs>
        <polygon id="path-1" points="0.00014060281 0.027 141.396762 0.027 141.396762 71 0.00014060281 71 0.00014060281 0.027"></polygon>
    </defs>
    <g id="Page-1" stroke="none" stroke-width="1" fill="none" fill-rule="evenodd">
        <g transform="translate(0.000000, -1.000000)">
            <g id="Group-3" transform="translate(0.000000, 0.973300)">
                <mask id="mask-2" fill="white">
                    <use xlink:href="#path-1"></use>
                </mask>
                <g id="Clip-2"></g>
                <path d="M0.231,50.4658 C0.895,53.7078 2.833,56.5798 5.346,58.6768 C7.838,60.8258 10.804,62.3278 13.839,63.5228 C19.961,65.8638 26.508,66.8518 33.008,67.1668 C46.057,67.7858 59.051,65.5788 71.439,62.1238 C77.639,60.3678 83.693,58.2358 89.537,55.7688 C92.46,54.5438 95.317,53.2008 98.127,51.8268 C100.927,50.4308 103.638,48.9088 106.276,47.3508 C111.503,44.1908 116.439,40.6268 120.197,36.6878 C121.16,35.7188 121.963,34.7078 122.717,33.7168 C123.399,32.7178 124.06,31.7238 124.474,30.7998 C124.911,29.8758 125.221,28.9968 125.323,28.2698 C125.446,27.5288 125.43,26.9138 125.343,26.3198 C125.22,25.7298 125.002,25.1508 124.62,24.5018 C124.263,23.8548 123.631,23.1638 122.879,22.4708 C122.145,21.7748 121.176,21.0768 120.164,20.4108 C119.093,19.7718 117.971,19.1318 116.716,18.5908 C111.765,16.3188 105.853,14.8428 99.823,13.8548 C93.766,12.8638 87.485,12.3758 81.146,12.2628 C74.802,12.1408 68.388,12.4248 61.978,13.1048 C49.191,14.5128 36.312,17.3168 24.433,22.7548 C18.518,25.4688 12.81,28.8248 8.001,33.2788 C5.631,35.5208 3.427,38.0138 1.928,40.9438 C0.398,43.8328 -0.344,47.2048 0.231,50.4658 M0.231,50.4658 C-0.395,47.2158 0.294,43.8078 1.791,40.8738 C3.252,37.9048 5.293,35.2468 7.606,32.8778 C12.224,28.1068 17.713,24.2518 23.418,20.8268 C26.293,19.1448 29.216,17.5218 32.217,16.0448 C35.226,14.5908 38.267,13.1788 41.37,11.8968 C47.568,9.3158 53.949,7.1048 60.47,5.2898 C73.514,1.7258 87.146,-0.5572 101.238,0.1568 C108.279,0.5438 115.443,1.5948 122.675,4.3758 C126.265,5.8148 129.938,7.6428 133.373,10.6078 C135.065,12.1048 136.722,13.8348 138.079,16.0078 C139.441,18.1468 140.507,20.6458 141.045,23.2878 C141.547,25.9388 141.486,28.6588 141.025,31.1548 C140.586,33.6818 139.674,35.9028 138.657,37.9208 C136.582,41.9588 133.842,45.0208 131.047,47.6928 C128.242,50.3748 125.212,52.5478 122.152,54.5078 C119.093,56.4748 115.919,58.1158 112.723,59.6068 C99.908,65.5228 86.401,68.4838 72.963,70.0198 C66.232,70.7578 59.486,71.0818 52.77,70.9828 C46.056,70.8888 39.369,70.4018 32.782,69.3598 C26.21,68.3008 19.681,66.7608 13.62,64.0478 C10.593,62.7068 7.703,61.0058 5.252,58.7828 C2.789,56.6008 0.875,53.7118 0.231,50.4658" id="Fill-1" fill="#A9AED0" mask="url(#mask-2)"></path>
            </g>
            <path d="M55.7441,57.0856 C58.6631,55.3566 60.9331,52.9606 62.5561,49.8966 C64.1781,46.8326 64.9881,43.3556 64.9881,39.4626 C64.9881,35.5696 64.1781,32.0746 62.5561,28.9746 C60.9331,25.8766 58.6631,23.4606 55.7441,21.7316 C52.8251,20.0006 49.5271,19.1356 45.8511,19.1356 C42.1751,19.1356 38.8781,20.0006 35.9581,21.7316 C33.0391,23.4606 30.7501,25.8766 29.0931,28.9746 C27.4331,32.0746 26.6051,35.5696 26.6051,39.4626 C26.6051,43.3556 27.4331,46.8326 29.0931,49.8966 C30.7501,52.9606 33.0391,55.3566 35.9581,57.0856 C38.8781,58.8156 42.1751,59.6816 45.8511,59.6816 C49.5271,59.6816 52.8251,58.8156 55.7441,57.0856 M30.3901,65.5726 C25.8481,63.0156 22.3161,59.4646 19.7941,54.9236 C17.2701,50.3826 16.0101,45.2306 16.0101,39.4626 C16.0101,33.6236 17.2701,28.4346 19.7941,23.8936 C22.3161,19.3526 25.8481,15.8026 30.3901,13.2426 C34.9311,10.6856 40.0841,9.4046 45.8511,9.4046 C51.5441,9.4046 56.6441,10.6856 61.1501,13.2426 C65.6541,15.8026 69.1861,19.3526 71.7461,23.8936 C74.3041,28.4346 75.5841,33.6236 75.5841,39.4626 C75.5841,45.2306 74.3221,50.3826 71.8001,54.9236 C69.2761,59.4646 65.7621,63.0156 61.2581,65.5726 C56.7531,68.1326 51.6171,69.4116 45.8511,69.4116 C40.0841,69.4116 34.9311,68.1326 30.3901,65.5726" id="Fill-4" fill="#010202"></path>
            <path d="M82.1533,20.9743 C78.2963,24.7223 76.0073,29.6613 75.2873,35.7873 L117.3453,35.7873 C116.8413,29.6613 114.6783,24.7223 110.8583,20.9743 C107.0373,17.2273 102.2093,15.3513 96.3713,15.3513 C90.7483,15.3513 86.0073,17.2273 82.1533,20.9743 M110.4803,13.0273 C114.6243,15.5133 117.8493,18.9563 120.1573,23.3523 C122.4633,27.7493 123.6173,32.7593 123.6173,38.3813 C123.6173,39.3193 123.3283,40.0573 122.7523,40.5973 C122.1743,41.1383 121.4173,41.4093 120.4813,41.4093 L75.1793,41.4093 C75.3953,45.6623 76.5113,49.4633 78.5313,52.8153 C80.5483,56.1663 83.2513,58.7803 86.6393,60.6543 C90.0273,62.5293 93.8113,63.4653 97.9923,63.4653 C100.8033,63.4653 103.6323,62.9783 106.4793,62.0053 C109.3263,61.0323 111.5783,59.7533 113.2373,58.1673 C113.9573,57.5913 114.7143,57.3023 115.5073,57.3023 C116.2993,57.3023 116.9493,57.5183 117.4543,57.9513 C118.2463,58.5993 118.6433,59.3563 118.6433,60.2213 C118.6433,60.9433 118.3193,61.6263 117.6703,62.2763 C115.3623,64.3673 112.3533,66.0973 108.6423,67.4653 C104.9283,68.8353 101.3803,69.5203 97.9923,69.5203 C92.2983,69.5203 87.2343,68.2413 82.8013,65.6813 C78.3693,63.1233 74.8903,59.5563 72.3683,54.9773 C69.8433,50.4013 68.5843,45.2303 68.5843,39.4623 C68.5843,33.6233 69.7553,28.4173 72.0973,23.8393 C74.4393,19.2623 77.7193,15.6953 81.9363,13.1353 C86.1533,10.5783 90.9653,9.2963 96.3713,9.2963 C101.6323,9.2963 106.3353,10.5403 110.4803,13.0273" id="Fill-6" fill="#010202"></path>
        </g>
    </g>
</svg>