<?xml version="1.0" encoding="UTF-8"?>
<svg width="613px" height="226px" viewBox="0 0 613 226" version="1.1" xmlns="http://www.w3.org/2000/svg" xmlns:xlink="http://www.w3.org/1999/xlink">
    <!-- Generator: Sketch 46.2 (44496) - http://www.bohemiancoding.com/sketch -->
    <title>Page 1</title>
    <desc>Created with Sketch.</desc>
    <defs></defs>
    <g id="Page-1" stroke="none" stroke-width="1" fill="none" fill-rule="evenodd">
        <g fill="#FEFEFE">
            <path d="M78.5791,144.9892 C77.8561,139.0502 78.2201,132.9712 79.7201,127.1722 C81.1591,121.3542 83.6001,115.8162 86.6151,110.6492 C92.6881,100.2982 100.9121,91.3602 109.9041,83.4642 C118.9561,75.6002 128.7671,68.6342 139.0191,62.4122 C149.2801,56.2002 159.9181,50.6102 170.8141,45.5792 C192.6161,35.5302 215.3131,27.4252 238.4701,20.9792 C261.6161,14.4862 285.2091,9.5172 309.0361,6.0072 C332.8661,2.5222 356.9431,0.4092 381.1131,0.0452 C405.2731,-0.2638 429.5471,0.9862 453.6101,4.7102 C465.6341,6.5962 477.6131,9.0452 489.4191,12.3902 C501.2171,15.7342 512.8931,19.8542 524.1101,25.3362 C535.2771,30.8542 546.1741,37.5882 555.4331,46.8172 C560.0361,51.4262 564.2221,56.6652 567.4661,62.6122 C570.7601,68.5162 572.9751,75.1812 573.8811,82.0162 C574.7001,88.8622 574.2331,95.8672 572.5181,102.4072 C570.8661,108.9762 568.1261,115.0952 564.8221,120.7102 C558.1461,131.9462 549.3001,141.2002 539.8651,149.3352 C530.3741,157.4422 520.0971,164.3452 509.5151,170.5392 C498.9241,176.7342 487.9311,182.0852 476.7671,186.9272 C454.3951,196.5362 431.2171,203.8362 407.7481,209.5812 C384.2551,215.2632 360.4201,219.2562 336.4771,221.8442 C312.5311,224.4132 288.4481,225.5022 264.4131,225.0192 C240.3821,224.5792 216.3821,222.4072 192.7571,218.1432 C180.9491,215.9992 169.2511,213.2552 157.7621,209.8072 C146.2801,206.3482 135.0351,202.0632 124.3041,196.7162 C113.6221,191.3212 103.4251,184.7252 94.9531,176.2242 C90.7401,171.9762 86.9911,167.2252 84.1421,161.9532 C81.2381,156.7142 79.3661,150.9192 78.5791,144.9892 M78.5791,144.9892 C79.3881,150.9162 81.2811,156.6982 84.2011,161.9212 C87.0661,167.1752 90.8271,171.9052 95.0491,176.1302 C103.5411,184.5882 113.8281,191.0012 124.5221,196.2742 C135.2661,201.5232 146.5811,205.5112 158.0651,208.7672 C169.5591,212.0242 181.2831,214.4122 193.0731,216.2632 C216.6791,219.9062 240.5931,221.1442 264.4251,220.8352 C288.2681,220.4692 312.0531,218.3832 335.6001,214.9362 C359.1441,211.4652 382.4491,206.5532 405.2811,200.1422 C428.1211,193.7832 450.4791,185.7922 471.8561,175.9262 C482.5411,170.9952 492.9401,165.5162 502.9241,159.4702 C512.8961,153.4152 522.3911,146.6622 531.0391,139.1362 C539.6331,131.5932 547.3621,123.1282 552.8671,113.7002 C555.6111,109.0002 557.7681,104.0602 559.0141,99.0092 C560.3201,93.9622 560.6021,88.8162 560.0001,83.7812 C559.3091,78.7592 557.7601,73.8462 555.2291,69.2892 C552.7601,64.7102 549.4351,60.4682 545.6031,56.6042 C537.8981,48.8742 528.3111,42.5982 518.1001,37.4502 C507.8441,32.3352 496.9601,28.1802 485.7921,24.8092 C474.6141,21.4522 463.1721,18.7682 451.5971,16.6582 C440.0161,14.5732 428.3111,12.9822 416.5431,11.8582 C404.7721,10.7572 392.9391,10.1012 381.0861,9.8762 C357.3791,9.3932 333.5881,10.4572 309.9241,12.9872 C286.2651,15.5372 262.7171,19.4712 239.5391,25.0722 C216.3871,30.7322 193.5461,37.9172 171.6001,47.3412 C160.6491,52.0852 149.8931,57.3252 139.5811,63.3542 C129.2771,69.3812 119.3171,76.0692 110.2291,83.8402 C101.1941,91.6202 92.8401,100.4042 86.7321,110.7182 C83.7021,115.8642 81.2441,121.3842 79.7861,127.1882 C78.2651,132.9752 77.8791,139.0482 78.5791,144.9892" id="Fill-1"></path>
            <path d="M39.7344,133.9736 C42.6534,132.2446 44.9234,129.8486 46.5464,126.7846 C48.1684,123.7206 48.9784,120.2436 48.9784,116.3506 C48.9784,112.4576 48.1684,108.9626 46.5464,105.8626 C44.9234,102.7646 42.6534,100.3486 39.7344,98.6196 C36.8154,96.8886 33.5174,96.0236 29.8414,96.0236 C26.1654,96.0236 22.8684,96.8886 19.9484,98.6196 C17.0294,100.3486 14.7404,102.7646 13.0834,105.8626 C11.4234,108.9626 10.5954,112.4576 10.5954,116.3506 C10.5954,120.2436 11.4234,123.7206 13.0834,126.7846 C14.7404,129.8486 17.0294,132.2446 19.9484,133.9736 C22.8684,135.7036 26.1654,136.5696 29.8414,136.5696 C33.5174,136.5696 36.8154,135.7036 39.7344,133.9736 M14.3804,142.4606 C9.8384,139.9036 6.3064,136.3526 3.7844,131.8116 C1.2604,127.2706 0.0004,122.1186 0.0004,116.3506 C0.0004,110.5116 1.2604,105.3226 3.7844,100.7816 C6.3064,96.2406 9.8384,92.6906 14.3804,90.1306 C18.9214,87.5736 24.0744,86.2926 29.8414,86.2926 C35.5344,86.2926 40.6344,87.5736 45.1404,90.1306 C49.6444,92.6906 53.1764,96.2406 55.7364,100.7816 C58.2944,105.3226 59.5744,110.5116 59.5744,116.3506 C59.5744,122.1186 58.3124,127.2706 55.7904,131.8116 C53.2664,136.3526 49.7524,139.9036 45.2484,142.4606 C40.7434,145.0206 35.6074,146.2996 29.8414,146.2996 C24.0744,146.2996 18.9214,145.0206 14.3804,142.4606" id="Fill-3"></path>
            <path d="M110.4434,133.9199 C113.3634,132.1539 115.6504,129.7219 117.3094,126.6219 C118.9664,123.5239 119.7964,120.0639 119.7964,116.2419 C119.7964,112.4229 118.9664,108.9819 117.3094,105.9169 C115.6504,102.8549 113.3634,100.4399 110.4434,98.6729 C107.5244,96.9069 104.2624,96.0239 100.6594,96.0239 C97.0534,96.0239 93.7934,96.9069 90.8744,98.6729 C87.9554,100.4399 85.6474,102.8549 83.9544,105.9169 C82.2594,108.9819 81.4134,112.4229 81.4134,116.2419 C81.4134,120.0639 82.2594,123.5239 83.9544,126.6219 C85.6474,129.7219 87.9554,132.1539 90.8744,133.9199 C93.7934,135.6879 97.0534,136.5689 100.6594,136.5689 C104.2624,136.5689 107.5244,135.6879 110.4434,133.9199 M128.8784,62.9399 C129.8864,63.9489 130.3914,65.2819 130.3914,66.9399 L130.3914,116.2419 C130.3914,121.8639 129.0764,126.9649 126.4454,131.5409 C123.8134,136.1189 120.2454,139.7229 115.7414,142.3539 C111.2364,144.9849 106.2084,146.2999 100.6594,146.2999 C95.1074,146.2999 90.0454,144.9849 85.4674,142.3539 C80.8894,139.7229 77.3044,136.1189 74.7104,131.5409 C72.1154,126.9649 70.8174,121.8639 70.8174,116.2419 C70.8174,110.6199 72.0234,105.5219 74.4394,100.9429 C76.8534,96.3669 80.1704,92.7799 84.3864,90.1859 C88.6034,87.5909 93.3064,86.2929 98.4964,86.2929 C102.6754,86.2929 106.5684,87.1579 110.1734,88.8879 C113.7764,90.6179 116.8394,93.0329 119.3634,96.1319 L119.3634,66.9399 C119.3634,65.2819 119.8854,63.9489 120.9314,62.9399 C121.9754,61.9309 123.2914,61.4259 124.8784,61.4259 C126.5354,61.4259 127.8684,61.9309 128.8784,62.9399" id="Fill-5"></path>
            <path d="M186.5586,133.9736 C189.4776,132.2446 191.7476,129.8486 193.3706,126.7846 C194.9926,123.7206 195.8026,120.2436 195.8026,116.3506 C195.8026,112.4576 194.9926,108.9626 193.3706,105.8626 C191.7476,102.7646 189.4776,100.3486 186.5586,98.6196 C183.6396,96.8886 180.3416,96.0236 176.6656,96.0236 C172.9896,96.0236 169.6926,96.8886 166.7726,98.6196 C163.8536,100.3486 161.5646,102.7646 159.9076,105.8626 C158.2476,108.9626 157.4196,112.4576 157.4196,116.3506 C157.4196,120.2436 158.2476,123.7206 159.9076,126.7846 C161.5646,129.8486 163.8536,132.2446 166.7726,133.9736 C169.6926,135.7036 172.9896,136.5696 176.6656,136.5696 C180.3416,136.5696 183.6396,135.7036 186.5586,133.9736 M161.2046,142.4606 C156.6626,139.9036 153.1306,136.3526 150.6086,131.8116 C148.0846,127.2706 146.8246,122.1186 146.8246,116.3506 C146.8246,110.5116 148.0846,105.3226 150.6086,100.7816 C153.1306,96.2406 156.6626,92.6906 161.2046,90.1306 C165.7456,87.5736 170.8986,86.2926 176.6656,86.2926 C182.3586,86.2926 187.4586,87.5736 191.9646,90.1306 C196.4686,92.6906 200.0006,96.2406 202.5606,100.7816 C205.1186,105.3226 206.3986,110.5116 206.3986,116.3506 C206.3986,122.1186 205.1366,127.2706 202.6146,131.8116 C200.0906,136.3526 196.5766,139.9036 192.0726,142.4606 C187.5676,145.0206 182.4316,146.2996 176.6656,146.2996 C170.8986,146.2996 165.7456,145.0206 161.2046,142.4606" id="Fill-7"></path>
            <path d="M260.7812,87.8066 C262.9442,88.9606 264.0252,90.4016 264.0252,92.1316 C264.0252,92.6366 263.9882,92.9956 263.9172,93.2126 C263.2682,95.5206 261.8252,96.6726 259.5922,96.6726 C259.2302,96.6726 258.6902,96.6016 257.9702,96.4556 C255.0872,95.9526 252.7432,95.6996 250.9422,95.6996 C245.7532,95.6996 241.5712,96.8886 238.4002,99.2676 C235.2272,101.6466 233.6432,104.8546 233.6432,108.8906 L233.6432,140.4606 C233.6432,142.1916 233.1922,143.5256 232.2922,144.4616 C231.3892,145.3996 230.0382,145.8676 228.2372,145.8676 C226.5082,145.8676 225.1732,145.4176 224.2372,144.5156 C223.3002,143.6156 222.8312,142.2636 222.8312,140.4606 L222.8312,92.1316 C222.8312,90.4016 223.3002,89.0686 224.2372,88.1306 C225.1732,87.1956 226.5082,86.7256 228.2372,86.7256 C231.8412,86.7256 233.6432,88.5286 233.6432,92.1316 L233.6432,94.1856 C235.8052,91.6636 238.4712,89.6816 241.6442,88.2396 C244.8152,86.7976 248.2022,86.0776 251.8072,86.0776 C255.6272,86.0776 258.6192,86.6546 260.7812,87.8066" id="Fill-9"></path>
            <path d="M285.7031,97.8622 C281.8461,101.6102 279.5571,106.5492 278.8371,112.6752 L320.8951,112.6752 C320.3911,106.5492 318.2281,101.6102 314.4081,97.8622 C310.5871,94.1152 305.7591,92.2392 299.9211,92.2392 C294.2981,92.2392 289.5571,94.1152 285.7031,97.8622 M314.0301,89.9152 C318.1741,92.4012 321.3991,95.8442 323.7071,100.2402 C326.0131,104.6372 327.1671,109.6472 327.1671,115.2692 C327.1671,116.2072 326.8781,116.9452 326.3021,117.4852 C325.7241,118.0262 324.9671,118.2972 324.0311,118.2972 L278.7291,118.2972 C278.9451,122.5502 280.0611,126.3512 282.0811,129.7032 C284.0981,133.0542 286.8011,135.6682 290.1891,137.5422 C293.5771,139.4172 297.3611,140.3532 301.5421,140.3532 C304.3531,140.3532 307.1821,139.8662 310.0291,138.8932 C312.8761,137.9202 315.1281,136.6412 316.7871,135.0552 C317.5071,134.4792 318.2641,134.1902 319.0571,134.1902 C319.8491,134.1902 320.4991,134.4062 321.0041,134.8392 C321.7961,135.4872 322.1931,136.2442 322.1931,137.1092 C322.1931,137.8312 321.8691,138.5142 321.2201,139.1642 C318.9121,141.2552 315.9031,142.9852 312.1921,144.3532 C308.4781,145.7232 304.9301,146.4082 301.5421,146.4082 C295.8481,146.4082 290.7841,145.1292 286.3511,142.5692 C281.9191,140.0112 278.4401,136.4442 275.9181,131.8652 C273.3931,127.2892 272.1341,122.1182 272.1341,116.3502 C272.1341,110.5112 273.3051,105.3052 275.6471,100.7272 C277.9891,96.1502 281.2691,92.5832 285.4861,90.0232 C289.7031,87.4662 294.5151,86.1842 299.9211,86.1842 C305.1821,86.1842 309.8851,87.4282 314.0301,89.9152" id="Fill-11"></path>
            <path d="M378.1992,137.3261 C381.8032,135.2361 384.6332,132.3521 386.6862,128.6761 C388.7412,125.0001 389.7682,120.8911 389.7682,116.3501 C389.7682,111.8091 388.7412,107.7011 386.6862,104.0241 C384.6332,100.3481 381.8032,97.4481 378.1992,95.3211 C374.5942,93.1961 370.5582,92.1321 366.0902,92.1321 C361.6202,92.1321 357.5842,93.1961 353.9802,95.3211 C350.3752,97.4481 347.5282,100.3481 345.4392,104.0241 C343.3472,107.7011 342.3032,111.8091 342.3032,116.3501 C342.3032,120.8911 343.3472,125.0001 345.4392,128.6761 C347.5282,132.3521 350.3752,135.2361 353.9802,137.3261 C357.5842,139.4171 361.6202,140.4611 366.0902,140.4611 C370.5582,140.4611 374.5942,139.4171 378.1992,137.3261 M381.4432,90.0231 C386.0542,92.6551 389.6772,96.2771 392.3082,100.8891 C394.9392,105.5031 396.2562,110.6571 396.2562,116.3501 L396.2562,142.6241 C396.2562,143.5611 395.9672,144.3371 395.3902,144.9481 C394.8122,145.5611 394.0202,145.8671 393.0122,145.8671 C392.0742,145.8671 391.2992,145.5611 390.6872,144.9481 C390.0742,144.3371 389.7682,143.5611 389.7682,142.6241 L389.7682,134.1901 C387.3892,138.0121 384.1272,141.0201 379.9832,143.2181 C375.8382,145.4181 371.2072,146.5151 366.0902,146.5151 C360.3952,146.5151 355.2412,145.2011 350.6292,142.5691 C346.0142,139.9391 342.3922,136.3171 339.7622,131.7031 C337.1312,127.0921 335.8162,121.9721 335.8162,116.3501 C335.8162,110.6571 337.1312,105.5031 339.7622,100.8891 C342.3922,96.2771 346.0142,92.6551 350.6292,90.0231 C355.2412,87.3921 360.3952,86.0771 366.0902,86.0771 C371.7122,86.0771 376.8292,87.3921 381.4432,90.0231" id="Fill-13"></path>
            <path d="M441.6104,140.1904 C442.2214,140.8034 442.5294,141.6154 442.5294,142.6244 C442.5294,143.5614 442.2214,144.3364 441.6104,144.9484 C440.9974,145.5614 440.1864,145.8674 439.1774,145.8674 L436.6904,145.8674 C432.7254,145.8674 429.1934,144.9664 426.0944,143.1644 C422.9954,141.3634 420.5814,138.8934 418.8514,135.7574 C417.1214,132.6224 416.2564,129.0734 416.2564,125.1084 L416.2564,94.7264 L407.8234,94.7264 C406.9584,94.7264 406.2554,94.4564 405.7144,93.9164 C405.1734,93.3754 404.9034,92.6714 404.9034,91.8074 C404.9034,90.9424 405.1734,90.2394 405.7144,89.6994 C406.2554,89.1584 406.9584,88.8874 407.8234,88.8874 L416.2564,88.8874 L416.2564,71.2644 C416.2564,70.2554 416.5614,69.4454 417.1744,68.8324 C417.7874,68.2194 418.5624,67.9134 419.5004,67.9134 C420.5084,67.9134 421.3194,68.2194 421.9324,68.8324 C422.5444,69.4454 422.8514,70.2554 422.8514,71.2644 L422.8514,88.8874 L437.1234,88.8874 C437.9884,88.8874 438.6914,89.1584 439.2314,89.6994 C439.7724,90.2394 440.0434,90.9424 440.0434,91.8074 C440.0434,92.6714 439.7724,93.3754 439.2314,93.9164 C438.6914,94.4564 437.9884,94.7264 437.1234,94.7264 L422.8514,94.7264 L422.8514,125.1084 C422.8514,129.2894 424.1494,132.6954 426.7444,135.3254 C429.3394,137.9584 432.6904,139.2714 436.7984,139.2714 L439.1774,139.2714 C440.1864,139.2714 440.9974,139.5794 441.6104,140.1904" id="Fill-15"></path>
            <path d="M466.3701,97.8622 C462.5131,101.6102 460.2241,106.5492 459.5041,112.6752 L501.5621,112.6752 C501.0581,106.5492 498.8951,101.6102 495.0751,97.8622 C491.2541,94.1152 486.4261,92.2392 480.5881,92.2392 C474.9651,92.2392 470.2241,94.1152 466.3701,97.8622 M494.6971,89.9152 C498.8411,92.4012 502.0661,95.8442 504.3741,100.2402 C506.6801,104.6372 507.8341,109.6472 507.8341,115.2692 C507.8341,116.2072 507.5451,116.9452 506.9691,117.4852 C506.3911,118.0262 505.6341,118.2972 504.6981,118.2972 L459.3961,118.2972 C459.6121,122.5502 460.7281,126.3512 462.7481,129.7032 C464.7651,133.0542 467.4681,135.6682 470.8561,137.5422 C474.2441,139.4172 478.0281,140.3532 482.2091,140.3532 C485.0201,140.3532 487.8491,139.8662 490.6961,138.8932 C493.5431,137.9202 495.7951,136.6412 497.4541,135.0552 C498.1741,134.4792 498.9311,134.1902 499.7241,134.1902 C500.5161,134.1902 501.1661,134.4062 501.6711,134.8392 C502.4631,135.4872 502.8601,136.2442 502.8601,137.1092 C502.8601,137.8312 502.5361,138.5142 501.8871,139.1642 C499.5791,141.2552 496.5701,142.9852 492.8591,144.3532 C489.1451,145.7232 485.5971,146.4082 482.2091,146.4082 C476.5151,146.4082 471.4511,145.1292 467.0181,142.5692 C462.5861,140.0112 459.1071,136.4442 456.5851,131.8652 C454.0601,127.2892 452.8011,122.1182 452.8011,116.3502 C452.8011,110.5112 453.9721,105.3052 456.3141,100.7272 C458.6561,96.1502 461.9361,92.5832 466.1531,90.0232 C470.3701,87.4662 475.1821,86.1842 480.5881,86.1842 C485.8491,86.1842 490.5521,87.4282 494.6971,89.9152" id="Fill-17"></path>
            <path d="M555.1904,89.6445 C555.1904,90.0055 555.1524,90.2935 555.0824,90.5095 C554.8654,91.3035 554.5224,91.8615 554.0544,92.1855 C553.5854,92.5095 552.9554,92.6715 552.1634,92.6715 C551.5134,92.6715 550.6664,92.6015 549.6224,92.4565 C548.5764,92.3125 547.6924,92.2395 546.9724,92.2395 C543.3684,92.2395 540.1614,92.9965 537.3504,94.5095 C534.5394,96.0235 532.3394,98.1155 530.7544,100.7815 C529.1694,103.4485 528.3764,106.4405 528.3764,109.7545 L528.3764,142.6235 C528.3764,143.5615 528.0864,144.3365 527.5114,144.9485 C526.9334,145.5615 526.1414,145.8675 525.1324,145.8675 C524.1954,145.8675 523.4194,145.5615 522.8074,144.9485 C522.1944,144.3365 521.8884,143.5615 521.8884,142.6235 L521.8884,89.9685 C521.8884,88.9605 522.1944,88.1675 522.8074,87.5905 C523.4194,87.0145 524.1954,86.7255 525.1324,86.7255 C526.1414,86.7255 526.9334,87.0145 527.5114,87.5905 C528.0864,88.1675 528.3764,88.9605 528.3764,89.9685 L528.3764,96.6725 C530.4654,93.3585 533.1334,90.7625 536.3774,88.8875 C539.6214,87.0145 543.1514,86.0775 546.9724,86.0775 C552.4504,86.0775 555.1904,87.2665 555.1904,89.6445" id="Fill-19"></path>
            <path d="M577.1377,144.2997 C573.1717,142.8227 569.8937,140.5697 567.2977,137.5417 C566.7927,136.9657 566.5407,136.3177 566.5407,135.5957 C566.5407,134.5867 567.0097,133.7577 567.9477,133.1097 C568.3797,132.7487 568.9917,132.5687 569.7847,132.5687 C570.7937,132.5687 571.6227,132.9657 572.2717,133.7577 C575.8747,138.1547 581.6787,140.3537 589.6787,140.3537 C595.3717,140.3537 599.5727,139.3447 602.2757,137.3257 C604.9787,135.3087 606.3297,132.7137 606.3297,129.5407 C606.3297,123.8477 600.8157,120.2067 589.7867,118.6207 C582.7947,117.6127 577.5157,115.7017 573.9477,112.8907 C570.3797,110.0787 568.5957,106.6927 568.5957,102.7277 C568.5957,97.4667 570.5237,93.3747 574.3797,90.4557 C578.2357,87.5357 583.2627,86.0767 589.4627,86.0767 C598.5447,86.0767 605.4277,89.3207 610.1147,95.8077 C610.5457,96.3127 610.7627,96.9257 610.7627,97.6457 C610.7627,98.6557 610.1847,99.4837 609.0327,100.1327 C608.3117,100.4207 607.7707,100.5647 607.4107,100.5647 C606.3297,100.5647 605.4277,100.0967 604.7077,99.1587 C601.0327,94.4747 595.8777,92.1317 589.2467,92.1317 C584.8497,92.1317 581.3537,93.0877 578.7587,94.9967 C576.1637,96.9067 574.8667,99.2677 574.8667,102.0777 C574.8667,104.9617 576.1107,107.2687 578.5967,108.9977 C581.0837,110.7287 585.2457,112.0257 591.0847,112.8907 C598.7237,113.9717 604.2217,116.0087 607.5737,118.9987 C610.9247,121.9907 612.6007,125.6127 612.6007,129.8647 C612.6007,133.1817 611.5357,136.1007 609.4107,138.6227 C607.2837,141.1477 604.4537,143.0927 600.9237,144.4617 C597.3917,145.8317 593.5337,146.5157 589.3547,146.5157 C585.1737,146.5157 581.1007,145.7777 577.1377,144.2997" id="Fill-21"></path>
        </g>
    </g>
</svg>