<?xml version="1.0" encoding="UTF-8"?>
<svg width="613px" height="227px" viewBox="0 0 613 227" version="1.1" xmlns="http://www.w3.org/2000/svg" xmlns:xlink="http://www.w3.org/1999/xlink">
    <!-- Generator: Sketch 46.2 (44496) - http://www.bohemiancoding.com/sketch -->
    <title>Page 1</title>
    <desc>Created with Sketch.</desc>
    <defs></defs>
    <g id="Page-1" stroke="none" stroke-width="1" fill="none" fill-rule="evenodd">
        <g>
            <path d="M78.5786,145.7085 C77.8546,139.7705 78.2156,133.6905 79.7156,127.8905 C81.1526,122.0715 83.5916,116.5315 86.6066,111.3635 C92.6776,101.0095 100.8916,92.0615 109.8806,84.1555 C118.9296,76.2865 128.7316,69.2995 138.9796,63.0635 C149.2366,56.8385 159.8656,51.2245 170.7576,46.1735 C192.5506,36.0795 215.2366,27.9075 238.3926,21.4065 C261.5376,14.8505 285.1336,9.8075 308.9736,6.2275 C332.8136,2.6755 356.9116,0.4865 381.1146,0.0625 C405.3076,-0.2995 429.6266,0.8855 453.7536,4.5755 C465.8086,6.4465 477.8276,8.8785 489.6776,12.2235 C501.5206,15.5645 513.2536,19.6835 524.5386,25.1895 C535.7746,30.7345 546.7646,37.5015 556.1346,46.8375 C560.7926,51.4995 565.0396,56.8105 568.3386,62.8545 C571.6876,68.8545 573.9506,75.6455 574.8716,82.6095 C575.7066,89.5845 575.2266,96.7225 573.4836,103.3685 C571.8016,110.0465 569.0196,116.2505 565.6756,121.9295 C558.9166,133.2955 549.9896,142.6055 540.4956,150.7825 C530.9436,158.9325 520.6106,165.8465 509.9846,172.0495 C499.3506,178.2545 488.3146,183.5965 477.1176,188.4335 C432.1506,207.4695 384.4396,217.9685 336.5406,223.0585 C312.5656,225.5625 288.4606,226.5815 264.4126,226.0375 C252.3886,225.7845 240.3786,225.0965 228.4156,223.9525 C216.4546,222.7905 204.5476,221.1385 192.7346,218.9975 C180.9256,216.8315 169.2276,214.0625 157.7406,210.6025 C146.2586,207.1275 135.0186,202.8205 124.2876,197.4665 C113.6066,192.0625 103.4156,185.4545 94.9466,176.9505 C90.7336,172.7005 86.9856,167.9475 84.1376,162.6745 C81.2346,157.4345 79.3636,151.6385 78.5786,145.7085 M78.5786,145.7085 C79.3896,151.6355 81.2846,157.4175 84.2056,162.6385 C87.0716,167.8915 90.8326,172.6185 95.0556,176.8425 C103.5496,185.2975 113.8426,191.6975 124.5386,196.9615 C135.2826,202.2045 146.6026,206.1715 158.0876,209.4125 C169.5816,212.6555 181.3076,215.0185 193.0966,216.8495 C216.6996,220.4465 240.6076,221.6185 264.4256,221.2555 C288.2556,220.8305 312.0186,218.6715 335.5366,215.1625 C359.0536,211.6275 382.3206,206.6505 405.1046,200.1875 C427.8996,193.7845 450.1996,185.7445 471.5056,175.8595 C482.1556,170.9235 492.5126,165.4345 502.4526,159.3985 C512.3826,153.3545 521.8216,146.6115 530.4096,139.1285 C538.9426,131.6275 546.5926,123.2175 552.0136,113.9185 C554.7166,109.2835 556.8326,104.4285 558.0486,99.4845 C559.3276,94.5455 559.5946,89.5315 559.0076,84.6275 C558.3336,79.7335 556.8306,74.9465 554.3546,70.4855 C551.9416,66.0035 548.6776,61.8335 544.9016,58.0225 C543.0086,56.1185 540.9986,54.2925 538.8686,52.5635 C536.7676,50.8095 534.5286,49.1725 532.2436,47.5855 C527.6396,44.4455 522.7516,41.5985 517.6716,39.0345 C507.4826,33.9445 496.6556,29.7895 485.5326,26.4155 C474.4006,23.0575 462.9956,20.3565 451.4536,18.2305 C439.9036,16.1335 428.2266,14.5135 416.4816,13.3625 C404.7346,12.2345 392.9216,11.5515 381.0846,11.2975 C357.4096,10.7555 333.6396,11.7425 309.9876,14.2045 C286.3396,16.6875 262.7946,20.5465 239.6156,26.0845 C216.4636,31.6875 193.6126,38.8075 171.6566,48.1865 C160.7016,52.9095 149.9376,58.1245 139.6206,64.1415 C129.3136,70.1535 119.3426,76.8225 110.2526,84.5865 C101.2146,92.3585 92.8506,101.1315 86.7406,111.4415 C83.7096,116.5875 81.2506,122.1055 79.7906,127.9085 C78.2676,133.6945 77.8806,139.7665 78.5786,145.7085" id="Fill-1" fill="#A9AED0"></path>
            <path d="M39.7344,134.6929 C42.6534,132.9639 44.9234,130.5679 46.5464,127.5039 C48.1684,124.4399 48.9784,120.9629 48.9784,117.0699 C48.9784,113.1769 48.1684,109.6819 46.5464,106.5819 C44.9234,103.4839 42.6534,101.0679 39.7344,99.3389 C36.8154,97.6079 33.5174,96.7429 29.8414,96.7429 C26.1654,96.7429 22.8684,97.6079 19.9484,99.3389 C17.0294,101.0679 14.7404,103.4839 13.0834,106.5819 C11.4234,109.6819 10.5954,113.1769 10.5954,117.0699 C10.5954,120.9629 11.4234,124.4399 13.0834,127.5039 C14.7404,130.5679 17.0294,132.9639 19.9484,134.6929 C22.8684,136.4229 26.1654,137.2889 29.8414,137.2889 C33.5174,137.2889 36.8154,136.4229 39.7344,134.6929 M14.3804,143.1799 C9.8384,140.6229 6.3064,137.0719 3.7844,132.5309 C1.2604,127.9899 0.0004,122.8379 0.0004,117.0699 C0.0004,111.2309 1.2604,106.0419 3.7844,101.5009 C6.3064,96.9599 9.8384,93.4099 14.3804,90.8499 C18.9214,88.2929 24.0744,87.0119 29.8414,87.0119 C35.5344,87.0119 40.6344,88.2929 45.1404,90.8499 C49.6444,93.4099 53.1764,96.9599 55.7364,101.5009 C58.2944,106.0419 59.5744,111.2309 59.5744,117.0699 C59.5744,122.8379 58.3124,127.9899 55.7904,132.5309 C53.2664,137.0719 49.7524,140.6229 45.2484,143.1799 C40.7434,145.7399 35.6074,147.0189 29.8414,147.0189 C24.0744,147.0189 18.9214,145.7399 14.3804,143.1799" id="Fill-3" fill="#010202"></path>
            <path d="M110.4434,134.6392 C113.3634,132.8732 115.6504,130.4412 117.3094,127.3412 C118.9664,124.2432 119.7964,120.7832 119.7964,116.9612 C119.7964,113.1422 118.9664,109.7012 117.3094,106.6362 C115.6504,103.5742 113.3634,101.1592 110.4434,99.3922 C107.5244,97.6262 104.2624,96.7432 100.6594,96.7432 C97.0534,96.7432 93.7934,97.6262 90.8744,99.3922 C87.9554,101.1592 85.6474,103.5742 83.9544,106.6362 C82.2594,109.7012 81.4134,113.1422 81.4134,116.9612 C81.4134,120.7832 82.2594,124.2432 83.9544,127.3412 C85.6474,130.4412 87.9554,132.8732 90.8744,134.6392 C93.7934,136.4072 97.0534,137.2882 100.6594,137.2882 C104.2624,137.2882 107.5244,136.4072 110.4434,134.6392 M128.8784,63.6592 C129.8864,64.6682 130.3914,66.0012 130.3914,67.6592 L130.3914,116.9612 C130.3914,122.5832 129.0764,127.6842 126.4454,132.2602 C123.8134,136.8382 120.2454,140.4422 115.7414,143.0732 C111.2364,145.7042 106.2084,147.0192 100.6594,147.0192 C95.1074,147.0192 90.0454,145.7042 85.4674,143.0732 C80.8894,140.4422 77.3044,136.8382 74.7104,132.2602 C72.1154,127.6842 70.8174,122.5832 70.8174,116.9612 C70.8174,111.3392 72.0234,106.2412 74.4394,101.6622 C76.8534,97.0862 80.1704,93.4992 84.3864,90.9052 C88.6034,88.3102 93.3064,87.0122 98.4964,87.0122 C102.6754,87.0122 106.5684,87.8772 110.1734,89.6072 C113.7764,91.3372 116.8394,93.7522 119.3634,96.8512 L119.3634,67.6592 C119.3634,66.0012 119.8854,64.6682 120.9314,63.6592 C121.9754,62.6502 123.2914,62.1452 124.8784,62.1452 C126.5354,62.1452 127.8684,62.6502 128.8784,63.6592" id="Fill-5" fill="#010202"></path>
            <path d="M186.5586,134.6929 C189.4776,132.9639 191.7476,130.5679 193.3706,127.5039 C194.9926,124.4399 195.8026,120.9629 195.8026,117.0699 C195.8026,113.1769 194.9926,109.6819 193.3706,106.5819 C191.7476,103.4839 189.4776,101.0679 186.5586,99.3389 C183.6396,97.6079 180.3416,96.7429 176.6656,96.7429 C172.9896,96.7429 169.6926,97.6079 166.7726,99.3389 C163.8536,101.0679 161.5646,103.4839 159.9076,106.5819 C158.2476,109.6819 157.4196,113.1769 157.4196,117.0699 C157.4196,120.9629 158.2476,124.4399 159.9076,127.5039 C161.5646,130.5679 163.8536,132.9639 166.7726,134.6929 C169.6926,136.4229 172.9896,137.2889 176.6656,137.2889 C180.3416,137.2889 183.6396,136.4229 186.5586,134.6929 M161.2046,143.1799 C156.6626,140.6229 153.1306,137.0719 150.6086,132.5309 C148.0846,127.9899 146.8246,122.8379 146.8246,117.0699 C146.8246,111.2309 148.0846,106.0419 150.6086,101.5009 C153.1306,96.9599 156.6626,93.4099 161.2046,90.8499 C165.7456,88.2929 170.8986,87.0119 176.6656,87.0119 C182.3586,87.0119 187.4586,88.2929 191.9646,90.8499 C196.4686,93.4099 200.0006,96.9599 202.5606,101.5009 C205.1186,106.0419 206.3986,111.2309 206.3986,117.0699 C206.3986,122.8379 205.1366,127.9899 202.6146,132.5309 C200.0906,137.0719 196.5766,140.6229 192.0726,143.1799 C187.5676,145.7399 182.4316,147.0189 176.6656,147.0189 C170.8986,147.0189 165.7456,145.7399 161.2046,143.1799" id="Fill-7" fill="#010202"></path>
            <path d="M260.7812,88.5259 C262.9442,89.6799 264.0252,91.1209 264.0252,92.8509 C264.0252,93.3559 263.9882,93.7149 263.9172,93.9319 C263.2682,96.2399 261.8252,97.3919 259.5922,97.3919 C259.2302,97.3919 258.6902,97.3209 257.9702,97.1749 C255.0872,96.6719 252.7432,96.4189 250.9422,96.4189 C245.7532,96.4189 241.5712,97.6079 238.4002,99.9869 C235.2272,102.3659 233.6432,105.5739 233.6432,109.6099 L233.6432,141.1799 C233.6432,142.9109 233.1922,144.2449 232.2922,145.1809 C231.3892,146.1189 230.0382,146.5869 228.2372,146.5869 C226.5082,146.5869 225.1732,146.1369 224.2372,145.2349 C223.3002,144.3349 222.8312,142.9829 222.8312,141.1799 L222.8312,92.8509 C222.8312,91.1209 223.3002,89.7879 224.2372,88.8499 C225.1732,87.9149 226.5082,87.4449 228.2372,87.4449 C231.8412,87.4449 233.6432,89.2479 233.6432,92.8509 L233.6432,94.9049 C235.8052,92.3829 238.4712,90.4009 241.6442,88.9589 C244.8152,87.5169 248.2022,86.7969 251.8072,86.7969 C255.6272,86.7969 258.6192,87.3739 260.7812,88.5259" id="Fill-9" fill="#010202"></path>
            <path d="M285.7031,98.5816 C281.8461,102.3296 279.5571,107.2686 278.8371,113.3946 L320.8951,113.3946 C320.3911,107.2686 318.2281,102.3296 314.4081,98.5816 C310.5871,94.8346 305.7591,92.9586 299.9211,92.9586 C294.2981,92.9586 289.5571,94.8346 285.7031,98.5816 M314.0301,90.6346 C318.1741,93.1206 321.3991,96.5636 323.7071,100.9596 C326.0131,105.3566 327.1671,110.3666 327.1671,115.9886 C327.1671,116.9266 326.8781,117.6646 326.3021,118.2046 C325.7241,118.7456 324.9671,119.0166 324.0311,119.0166 L278.7291,119.0166 C278.9451,123.2696 280.0611,127.0706 282.0811,130.4226 C284.0981,133.7736 286.8011,136.3876 290.1891,138.2616 C293.5771,140.1366 297.3611,141.0726 301.5421,141.0726 C304.3531,141.0726 307.1821,140.5856 310.0291,139.6126 C312.8761,138.6396 315.1281,137.3606 316.7871,135.7746 C317.5071,135.1986 318.2641,134.9096 319.0571,134.9096 C319.8491,134.9096 320.4991,135.1256 321.0041,135.5586 C321.7961,136.2066 322.1931,136.9636 322.1931,137.8286 C322.1931,138.5506 321.8691,139.2336 321.2201,139.8836 C318.9121,141.9746 315.9031,143.7046 312.1921,145.0726 C308.4781,146.4426 304.9301,147.1276 301.5421,147.1276 C295.8481,147.1276 290.7841,145.8486 286.3511,143.2886 C281.9191,140.7306 278.4401,137.1636 275.9181,132.5846 C273.3931,128.0086 272.1341,122.8376 272.1341,117.0696 C272.1341,111.2306 273.3051,106.0246 275.6471,101.4466 C277.9891,96.8696 281.2691,93.3026 285.4861,90.7426 C289.7031,88.1856 294.5151,86.9036 299.9211,86.9036 C305.1821,86.9036 309.8851,88.1476 314.0301,90.6346" id="Fill-11" fill="#010202"></path>
            <path d="M378.2002,138.0454 C381.8042,135.9554 384.6342,133.0714 386.6872,129.3954 C388.7422,125.7194 389.7692,121.6104 389.7692,117.0694 C389.7692,112.5284 388.7422,108.4204 386.6872,104.7434 C384.6342,101.0674 381.8042,98.1674 378.2002,96.0404 C374.5952,93.9154 370.5592,92.8514 366.0912,92.8514 C361.6212,92.8514 357.5852,93.9154 353.9812,96.0404 C350.3762,98.1674 347.5292,101.0674 345.4402,104.7434 C343.3482,108.4204 342.3042,112.5284 342.3042,117.0694 C342.3042,121.6104 343.3482,125.7194 345.4402,129.3954 C347.5292,133.0714 350.3762,135.9554 353.9812,138.0454 C357.5852,140.1364 361.6212,141.1804 366.0912,141.1804 C370.5592,141.1804 374.5952,140.1364 378.2002,138.0454 M381.4442,90.7424 C386.0552,93.3744 389.6782,96.9964 392.3092,101.6084 C394.9402,106.2224 396.2572,111.3764 396.2572,117.0694 L396.2572,143.3434 C396.2572,144.2804 395.9682,145.0564 395.3912,145.6674 C394.8132,146.2804 394.0212,146.5864 393.0132,146.5864 C392.0752,146.5864 391.3002,146.2804 390.6882,145.6674 C390.0752,145.0564 389.7692,144.2804 389.7692,143.3434 L389.7692,134.9094 C387.3902,138.7314 384.1282,141.7394 379.9842,143.9374 C375.8392,146.1374 371.2082,147.2344 366.0912,147.2344 C360.3962,147.2344 355.2422,145.9204 350.6302,143.2884 C346.0152,140.6584 342.3932,137.0364 339.7632,132.4224 C337.1322,127.8114 335.8172,122.6914 335.8172,117.0694 C335.8172,111.3764 337.1322,106.2224 339.7632,101.6084 C342.3932,96.9964 346.0152,93.3744 350.6302,90.7424 C355.2422,88.1114 360.3962,86.7964 366.0912,86.7964 C371.7132,86.7964 376.8302,88.1114 381.4442,90.7424" id="Fill-13" fill="#010202"></path>
            <path d="M441.6113,140.9097 C442.2223,141.5227 442.5303,142.3347 442.5303,143.3437 C442.5303,144.2807 442.2223,145.0557 441.6113,145.6677 C440.9983,146.2807 440.1873,146.5867 439.1783,146.5867 L436.6913,146.5867 C432.7263,146.5867 429.1943,145.6857 426.0953,143.8837 C422.9963,142.0827 420.5823,139.6127 418.8523,136.4767 C417.1223,133.3417 416.2573,129.7927 416.2573,125.8277 L416.2573,95.4457 L407.8243,95.4457 C406.9593,95.4457 406.2563,95.1757 405.7153,94.6357 C405.1743,94.0947 404.9043,93.3907 404.9043,92.5267 C404.9043,91.6617 405.1743,90.9587 405.7153,90.4187 C406.2563,89.8777 406.9593,89.6067 407.8243,89.6067 L416.2573,89.6067 L416.2573,71.9837 C416.2573,70.9747 416.5623,70.1647 417.1753,69.5517 C417.7883,68.9387 418.5633,68.6327 419.5013,68.6327 C420.5093,68.6327 421.3203,68.9387 421.9333,69.5517 C422.5453,70.1647 422.8523,70.9747 422.8523,71.9837 L422.8523,89.6067 L437.1243,89.6067 C437.9893,89.6067 438.6923,89.8777 439.2323,90.4187 C439.7733,90.9587 440.0443,91.6617 440.0443,92.5267 C440.0443,93.3907 439.7733,94.0947 439.2323,94.6357 C438.6923,95.1757 437.9893,95.4457 437.1243,95.4457 L422.8523,95.4457 L422.8523,125.8277 C422.8523,130.0087 424.1503,133.4147 426.7453,136.0447 C429.3403,138.6777 432.6913,139.9907 436.7993,139.9907 L439.1783,139.9907 C440.1873,139.9907 440.9983,140.2987 441.6113,140.9097" id="Fill-15" fill="#010202"></path>
            <path d="M466.3711,98.5816 C462.5141,102.3296 460.2251,107.2686 459.5051,113.3946 L501.5631,113.3946 C501.0591,107.2686 498.8961,102.3296 495.0761,98.5816 C491.2551,94.8346 486.4271,92.9586 480.5891,92.9586 C474.9661,92.9586 470.2251,94.8346 466.3711,98.5816 M494.6981,90.6346 C498.8421,93.1206 502.0671,96.5636 504.3751,100.9596 C506.6811,105.3566 507.8351,110.3666 507.8351,115.9886 C507.8351,116.9266 507.5461,117.6646 506.9701,118.2046 C506.3921,118.7456 505.6351,119.0166 504.6991,119.0166 L459.3971,119.0166 C459.6131,123.2696 460.7291,127.0706 462.7491,130.4226 C464.7661,133.7736 467.4691,136.3876 470.8571,138.2616 C474.2451,140.1366 478.0291,141.0726 482.2101,141.0726 C485.0211,141.0726 487.8501,140.5856 490.6971,139.6126 C493.5441,138.6396 495.7961,137.3606 497.4551,135.7746 C498.1751,135.1986 498.9321,134.9096 499.7251,134.9096 C500.5171,134.9096 501.1671,135.1256 501.6721,135.5586 C502.4641,136.2066 502.8611,136.9636 502.8611,137.8286 C502.8611,138.5506 502.5371,139.2336 501.8881,139.8836 C499.5801,141.9746 496.5711,143.7046 492.8601,145.0726 C489.1461,146.4426 485.5981,147.1276 482.2101,147.1276 C476.5161,147.1276 471.4521,145.8486 467.0191,143.2886 C462.5871,140.7306 459.1081,137.1636 456.5861,132.5846 C454.0611,128.0086 452.8021,122.8376 452.8021,117.0696 C452.8021,111.2306 453.9731,106.0246 456.3151,101.4466 C458.6571,96.8696 461.9371,93.3026 466.1541,90.7426 C470.3711,88.1856 475.1831,86.9036 480.5891,86.9036 C485.8501,86.9036 490.5531,88.1476 494.6981,90.6346" id="Fill-17" fill="#010202"></path>
            <path d="M555.1914,90.3638 C555.1914,90.7248 555.1534,91.0128 555.0834,91.2288 C554.8664,92.0228 554.5234,92.5808 554.0554,92.9048 C553.5864,93.2288 552.9564,93.3908 552.1644,93.3908 C551.5144,93.3908 550.6674,93.3208 549.6234,93.1758 C548.5774,93.0318 547.6934,92.9588 546.9734,92.9588 C543.3694,92.9588 540.1624,93.7158 537.3514,95.2288 C534.5404,96.7428 532.3404,98.8348 530.7554,101.5008 C529.1704,104.1678 528.3774,107.1598 528.3774,110.4738 L528.3774,143.3428 C528.3774,144.2808 528.0874,145.0558 527.5124,145.6678 C526.9344,146.2808 526.1424,146.5868 525.1334,146.5868 C524.1964,146.5868 523.4204,146.2808 522.8084,145.6678 C522.1954,145.0558 521.8894,144.2808 521.8894,143.3428 L521.8894,90.6878 C521.8894,89.6798 522.1954,88.8868 522.8084,88.3098 C523.4204,87.7338 524.1964,87.4448 525.1334,87.4448 C526.1424,87.4448 526.9344,87.7338 527.5124,88.3098 C528.0874,88.8868 528.3774,89.6798 528.3774,90.6878 L528.3774,97.3918 C530.4664,94.0778 533.1344,91.4818 536.3784,89.6068 C539.6224,87.7338 543.1524,86.7968 546.9734,86.7968 C552.4514,86.7968 555.1914,87.9858 555.1914,90.3638" id="Fill-19" fill="#010202"></path>
            <path d="M577.1387,145.0191 C573.1727,143.5421 569.8947,141.2891 567.2987,138.2611 C566.7937,137.6851 566.5417,137.0371 566.5417,136.3151 C566.5417,135.3061 567.0107,134.4771 567.9487,133.8291 C568.3807,133.4681 568.9927,133.2881 569.7857,133.2881 C570.7947,133.2881 571.6237,133.6851 572.2727,134.4771 C575.8757,138.8741 581.6797,141.0731 589.6797,141.0731 C595.3727,141.0731 599.5737,140.0641 602.2767,138.0451 C604.9797,136.0281 606.3307,133.4331 606.3307,130.2601 C606.3307,124.5671 600.8167,120.9261 589.7877,119.3401 C582.7957,118.3321 577.5167,116.4211 573.9487,113.6101 C570.3807,110.7981 568.5967,107.4121 568.5967,103.4471 C568.5967,98.1861 570.5247,94.0941 574.3807,91.1751 C578.2367,88.2551 583.2637,86.7961 589.4637,86.7961 C598.5457,86.7961 605.4287,90.0401 610.1157,96.5271 C610.5467,97.0321 610.7637,97.6451 610.7637,98.3651 C610.7637,99.3751 610.1857,100.2031 609.0337,100.8521 C608.3127,101.1401 607.7717,101.2841 607.4117,101.2841 C606.3307,101.2841 605.4287,100.8161 604.7087,99.8781 C601.0337,95.1941 595.8787,92.8511 589.2477,92.8511 C584.8507,92.8511 581.3547,93.8071 578.7597,95.7161 C576.1647,97.6261 574.8677,99.9871 574.8677,102.7971 C574.8677,105.6811 576.1117,107.9881 578.5977,109.7171 C581.0847,111.4481 585.2467,112.7451 591.0857,113.6101 C598.7247,114.6911 604.2227,116.7281 607.5747,119.7181 C610.9257,122.7101 612.6017,126.3321 612.6017,130.5841 C612.6017,133.9011 611.5367,136.8201 609.4117,139.3421 C607.2847,141.8671 604.4547,143.8121 600.9247,145.1811 C597.3927,146.5511 593.5347,147.2351 589.3557,147.2351 C585.1747,147.2351 581.1017,146.4971 577.1387,145.0191" id="Fill-21" fill="#010202"></path>
        </g>
    </g>
</svg>